<?xml version="1.0" encoding="UTF-8" standalone="no"?>
<svg
   xmlns:dc="http://purl.org/dc/elements/1.1/"
   xmlns:cc="http://creativecommons.org/ns#"
   xmlns:rdf="http://www.w3.org/1999/02/22-rdf-syntax-ns#"
   xmlns:svg="http://www.w3.org/2000/svg"
   xmlns="http://www.w3.org/2000/svg"
   viewBox="0 0 456.89334 212.05333"
   height="212.05333"
   width="456.89334"
   xml:space="preserve"
   id="svg2"
   version="1.1"><metadata
     id="metadata8"><rdf:RDF><cc:Work
         rdf:about=""><dc:format>image/svg+xml</dc:format><dc:type
           rdf:resource="http://purl.org/dc/dcmitype/StillImage" /></cc:Work></rdf:RDF></metadata><defs
     id="defs6" /><g
     transform="matrix(1.3333333,0,0,-1.3333333,0,212.05333)"
     id="g10"><g
       transform="scale(0.1)"
       id="g12"><path
         id="path14"
         style="fill:#ffffff;fill-opacity:1;fill-rule:nonzero;stroke:none"
         d="m 1355.02,1201.98 c 0,-18.93 -19.06,-19.01 -19.06,-19.01 h -136.61 v 37.99 h 136.61 c 19.06,0 19.06,-18.98 19.06,-18.98 m -292.37,18.98 h 136.59 v -37.99 h -136.59 c 0,0 -18.93,0.08 -18.93,19.01 0,0 0,18.98 18.93,18.98 m 292.97,215.79 c 0,0 -7.35,40.59 -36.43,29.84 0,0 -31.87,-13.97 -9.6,-60.88 0,0 4.43,15.08 17.86,13.68 0,0 26.17,-3 13.26,-35.71 0,0 -10.02,-23.16 -30.44,-17.84 0,0 -29.38,2.61 -29.38,45.69 0,0 -20.12,-38.05 -43.34,-34.76 0,0 -28.92,-2.72 -28.28,30.85 0,0 1.83,24.55 23.07,28.5 0,0 25.3,2.71 20.72,-21.21 0,0 57.57,48.71 4.74,78.48 0,0 -22.64,10.46 -42.47,-12.15 0,0 10.26,11.88 10.89,27.85 0,0 9.4,29.07 -26.98,49.01 v 0.08 c -0.01,-0.02 -0.04,-0.03 -0.05,-0.05 -0.02,0.02 -0.05,0.03 -0.06,0.05 v -0.08 c -36.32,-19.94 -27.08,-49.01 -27.08,-49.01 0.68,-15.97 10.99,-27.85 10.99,-27.85 -19.8,22.61 -42.54,12.15 -42.54,12.15 -52.78,-29.77 4.86,-78.48 4.86,-78.48 -4.59,23.92 20.56,21.21 20.56,21.21 21.35,-3.95 23.33,-28.5 23.33,-28.5 0.37,-33.57 -28.52,-30.85 -28.52,-30.85 -23.13,-3.29 -43.18,34.76 -43.18,34.76 0,-43.08 -29.4,-45.69 -29.4,-45.69 -20.39,-5.32 -30.45,17.84 -30.45,17.84 -12.88,32.71 13.2,35.71 13.2,35.71 13.51,1.4 17.82,-13.68 17.82,-13.68 22.35,46.91 -9.59,60.88 -9.59,60.88 -28.99,10.75 -36.37,-29.84 -36.37,-29.84 -18.53,48.39 -56.397,35.78 -56.397,35.78 56.397,-76.24 75.567,-148.48 75.567,-148.48 h 274.41 c 0,0 19.28,72.24 75.69,148.48 0,0 -37.86,12.61 -56.41,-35.78 m -22.92,-146.52 c 0,0 -5.04,-37.59 -5.34,-37.59 0,0 2.82,0.34 -128.12,0 h -129.31 c 0,0 -4.69,37.59 -5.01,37.59 h 134.32 133.46" /><path
         id="path16"
         style="fill:#ffffff;fill-opacity:1;fill-rule:nonzero;stroke:none"
         d="m 81.3867,1354.92 c 0,0 -29.2265,24.52 -4.7695,82 0,0 22.1719,-32.56 59.9218,-38.57 0,0 16.039,61.17 57.051,69.24 0,0 -14.664,-37.74 24.43,-70.26 0,0 33.957,48.06 76.847,47.63 0,0 -23.586,-24.48 -9.871,-47.1 0,0 12.672,-26.47 -2.406,-42.94 0,0 26.918,0 46.66,16.96 0,0 29.418,17.01 15.57,80.55 0,0 -7.023,43.43 61.278,58.98 0,0 -78.203,33.41 -157.371,-22.21 0,0 -37.809,55.62 39.632,100.89 0,0 -130.242,11.28 -187.222,-113.59 0,0 -47.9886,23.63 -16.4768,83.45 0,0 -89.07426,-32.58 -81.06254,-137.7 0,0 1.98047,-67.33 77.78904,-67.33 m 74.7113,-201.48 h 63.98 c 28.492,-0.15 28.492,40.65 0,40.57 h -63.98 c -28.481,0.08 -28.481,-40.72 0,-40.57 m -30.743,67.13 c 0,-0.09 125.504,-0.09 125.504,0 28.559,-0.17 28.559,40.65 0,40.61 H 125.355 c -28.5464,0.04 -28.5464,-40.78 0,-40.61 m -31.0073,67.14 c -28.5508,-0.21 -28.5508,40.73 0,40.66 l 187.4293,-0.07 c 28.664,0.07 28.664,-40.8 0,-40.59 0,-0.08 -187.4293,-0.08 -187.4293,0" /><path
         id="path18"
         style="fill:#ffffff;fill-opacity:1;fill-rule:nonzero;stroke:none"
         d="m 852.031,1351.82 c 0,0 -4.625,-24.55 -30.941,-23.61 l -0.481,0.13 c 0,0 0.204,-0.13 0.243,-0.17 -0.071,0 -0.114,-0.01 -0.164,-0.01 l 0.316,-0.09 c 2.016,-1.44 21.125,-15.84 10.965,-37.48 0,0 -11.75,-25.62 -43.008,-19.16 0,0 -18.844,4.2 -23.781,-17.2 0,0 -3.614,-31.84 -31.582,-35.09 0,0 -25,-3.26 -31.957,22.18 v 0.29 c 0,0 -0.047,-0.15 -0.063,-0.16 0,0.03 -0.019,0.03 -0.031,0.05 v -0.13 c -0.399,-1.36 -7.977,-25.11 -32.289,-22.19 0,0 -28.008,3.28 -31.567,35.14 0,0 -1.718,19.16 -23.789,17.21 0,0 -31.304,-6.45 -43.101,19.2 0,0 -10.781,22.63 11.289,37.31 l 0.258,0.07 h -0.16 c 0.011,0.02 0.035,0.04 0.054,0.05 l -0.152,-0.05 c -1.344,-0.02 -26.363,-0.23 -31.078,23.93 0,0 -5.492,27.63 23.648,40.8 0,0 17.668,7.58 9.11,27.93 0,0 -15.879,27.78 4.859,46.95 0,0 18.148,17.15 38.941,0.78 l 0.227,-0.29 c 0,0 -0.047,0.18 -0.067,0.2 0.02,-0.01 0.047,-0.02 0.067,-0.03 l -0.086,0.1 c -0.543,1.54 -8.121,25.15 13.035,36.91 0,0 24.606,13.88 46.145,-9.82 0,0 12.769,-14.44 29.332,0 0,0 21.586,23.7 46.175,9.82 0,0 22.032,-11.94 12.832,-36.82 l -0.16,-0.23 c 0,0 0.129,0.1 0.141,0.11 -0.012,-0.04 -0.012,-0.05 -0.031,-0.07 l 0.109,0.12 c 1.133,0.86 21.277,15.61 39.274,-1.07 0,0 20.527,-19.11 4.855,-46.84 0,0 -9.875,-16.52 8.961,-28.03 0,0 29.211,-13.08 23.652,-40.74 m 56.578,41.77 c 0,0 -10.621,33.21 -43.636,26.41 0,0 29.695,16.39 19.488,46.8 0,0 -14.668,41.62 -57.922,31.84 0,0 -17.73,-2.01 -25.648,5.06 l -6.223,-8.52 6.324,8.71 c 0,0 -9.351,5.25 -12.719,22.99 0,0 -3.843,44.04 -48.183,45.28 0,0 -34.82,0.09 -38.621,-33.39 0,0 -6.231,33.48 -38.406,33.07 0,0 -44.036,-1.14 -48.223,-45.35 0,0 -3.551,-17.27 -12.75,-22.66 l -0.059,0.06 c 0,0 -7.972,-7.26 -25.75,-4.96 0,0 -43,9.89 -58.054,-31.93 0,0 -10.805,-33.07 19.836,-46.95 0,0 -33.653,4.24 -43.293,-26.41 0,0 -12.571,-42.19 28.101,-59.76 0,0 15.539,-8.74 17.789,-19.15 l -0.09,-0.03 c 0,0 4.461,-9.79 -3.23,-26.16 0,0 -22.758,-37.91 12.25,-64.96 0,0 28.281,-20.55 50.871,4.28 0,0 -14.418,-30.75 11.66,-49.24 0,0 36.359,-25 65.649,8.32 0,0 13.191,11.95 23.699,10.84 l 0.078,21.92 v -22 c 0,0 10.641,1.19 23.769,-11.22 0,0 29.036,-33.28 65.594,-8.23 0,0 28.231,20.42 11.61,49.61 0,0 24.808,-23.3 50.562,-4.2 0,0 34.887,26.97 12.398,65.11 0,0 -7.39,16.14 -3.21,25.93 l -11.86,3.88 12.063,-3.88 c 0,0 2.015,10.48 17.898,19.18 0,0 40.68,17.28 28.238,59.71 M 674.77,1366.88 c 0,14.7 11.949,26.71 26.699,26.71 14.754,0 26.75,-12.01 26.75,-26.71 0,-14.79 -11.996,-26.75 -26.75,-26.75 -14.75,0 -26.699,11.96 -26.699,26.75 m 79.621,-17.22 c 0,0 -10.344,-36.87 -53.672,-38.87 v 0.19 c 0,0 -38.227,-1.5 -53.551,39.14 l 0.141,0.04 c 0,0 -13.207,35.93 20.671,63.04 l 0.11,-0.16 c 0,0 30,23.68 66.301,-0.16 l -0.098,-0.14 c 0,0 31.863,-21.31 20.418,-63.17 l 24.969,-8.09 z m 38.043,36.22 c 0,0 -12.754,8.36 -5.664,23.13 0,0 4.691,16.44 -5.129,28.67 0,0 -11.86,13.89 -26.121,4.26 l -0.911,-1.25 c 0.079,0.16 7.071,17.89 -11.5,25.76 0,0 -11.941,6.76 -31.496,-6.37 0,0 -11.953,-9.51 -23.816,1.57 0,0 -14.141,9.71 -28.719,4.17 0,0 -16.937,-7.05 -12.301,-23.61 l 0.703,-0.96 c -1.832,1.39 -15.359,10.96 -27.71,-3.3 0,0 -10.188,-9.15 -3.633,-31.93 0,0 5.254,-14.2 -8.938,-21.95 0,0 -13.543,-10.59 -12.82,-26.27 0,0 1.422,-18.23 18.641,-18.85 l 1.441,0.49 c -0.481,-0.33 -15.981,-10.56 -5.832,-27.6 0,0 5.664,-12.46 29.312,-13.3 0,0 15.18,0.75 18.348,-15.23 0,0 5.688,-16.27 20.84,-20.38 0,0 17.719,-4.17 23.59,11.98 v 1.52 c 0,0 4.801,-18.7 24.492,-14.07 0,0 13.656,1.45 21.629,23.7 0,0 4.121,14.63 20.289,12.57 0,0 17.129,0.55 25.734,13.66 0,0 9.637,15.69 -4.082,26.25 l -1.433,0.46 c 0.144,-0.01 19.199,-1.14 20.925,18.89 0,0 2.758,13.41 -15.839,27.99" /><path
         id="path20"
         style="fill:#ffffff;fill-opacity:1;fill-rule:nonzero;stroke:none"
         d="m 2095.13,1506.59 c -7.2,34.12 -30.45,36.87 -39.61,36.66 0,-0.07 -0.16,-12.03 0,-12.03 10.37,0.08 13.07,-8.44 13.07,-12.29 -0.75,-12.28 -12.01,-12.34 -12.01,-12.34 -7.34,0.13 -12.49,5.82 -12.49,12.05 -0.02,7.22 5.44,11.93 11.43,12.58 0.18,-0.04 0,12.07 0,12.07 -30.34,0.52 -29.28,-24.46 -29.28,-24.46 -7.28,-6.11 -21.65,-11.34 -21.65,-11.34 -4.89,-4.01 -5.25,-11.64 -5.25,-11.64 -0.28,-4.14 0.28,-5.65 0.28,-5.36 27.47,11.43 33.68,5.53 33.68,5.53 l 4.91,-3.81 c 6.73,-8.98 8.66,-29.02 8.66,-29.02 -5.47,-38.59 -38.19,-39.49 -32.77,-94.65 3.55,-89.77 124.88,-112.95 124.88,-112.95 6.81,-13.55 -8.5,-43.63 -8.5,-43.63 -1.93,-4.62 -5.71,-4.62 -20.96,-2.19 -7.65,1.44 -12.8,2.91 -12.8,2.91 -24.85,8.6 -15.88,-18.22 -15.88,-18.22 -0.1,0.14 91.15,0 91.15,0 6.8,24.58 -9.84,17.15 -9.84,17.15 -16.5,-8.45 -15.13,0.62 -15.13,0.62 4.95,27.37 17.67,44.36 17.67,44.36 -211.91,127.62 -71.42,166.21 -71.42,166.21 0,0 -96.37,-47.76 119.07,-164.97 53.8,-32.69 55.54,-34.02 73.11,-42.72 12.43,-8.04 15.13,-3.25 15.13,-3.25 1.97,4.18 -3.97,9.88 -3.97,9.88 l -50.24,62.35 c 66.08,-42.15 95.43,-64.11 95.43,-64.11 31.04,-13.26 77.13,28.91 17.21,54.48 -250.17,135.34 -263.88,232.13 -263.88,232.13" /><path
         id="path22"
         style="fill:#ffffff;fill-opacity:1;fill-rule:nonzero;stroke:none"
         d="m 1846.75,1451.22 c 0,0 -43.59,12 -75.56,-34.08 0,0 -25.71,-32.51 -29.91,-101.03 h -26.54 c 0,0 1.76,43.74 13.45,85.6 0,0 6.63,26.27 14.86,70.44 0,0 7.76,37.88 -4.03,66.5 0,0 -14.95,44.29 -42.61,42.41 -27.67,1.88 -42.59,-42.41 -42.59,-42.41 -11.85,-28.62 -3.96,-66.5 -3.96,-66.5 8.27,-44.17 14.85,-70.44 14.85,-70.44 11.6,-41.86 13.57,-85.6 13.57,-85.6 h -26.6 c -4.25,68.52 -30.03,101.03 -30.03,101.03 -31.89,46.08 -75.64,34.08 -75.64,34.08 -55.33,-12.54 -54.03,-67.16 -54.03,-67.16 -0.83,-47.58 27.97,-63.75 27.97,-63.75 25.33,-15.79 51.95,-10.84 51.95,-10.84 -8.58,9.07 -13.65,16.82 -13.65,16.82 -10.18,22.43 9.17,32.64 9.17,32.64 18.92,10.18 35.38,-6.64 35.38,-6.64 14.8,-14.63 18.85,-36.18 18.85,-36.18 h -20.31 c -18.18,0 -17.93,-21.41 -17.93,-21.41 -0.25,-21.4 17.93,-21.49 17.93,-21.49 h 19.91 c -2.33,-21.22 -21.96,-19.57 -21.96,-19.57 -19.52,0.27 -32.58,26.29 -32.58,26.29 -13.68,-15.18 -8.93,-34.43 -9.1,-34.53 6.92,-34.58 42.06,-33.58 42.06,-33.58 50.66,-0.26 52.78,61.39 52.78,61.39 h 25.83 c -5.52,-68.81 -38.23,-80.63 -38.23,-80.63 14.02,-34.7 56.36,-32.57 56.36,-32.57 0,0 42.34,-2.13 56.36,32.57 0,0 -32.71,11.82 -38.03,80.63 h 25.69 c 0,0 2.2,-61.65 52.81,-61.39 0,0 35.13,-1 41.87,33.58 0,0.1 4.59,19.35 -9.06,34.53 0,0 -13,-26.02 -32.41,-26.29 0,0 -19.65,-1.65 -22,19.57 h 19.82 c 0,0 18.32,0.09 18.04,21.49 0,0 0.28,21.41 -18.04,21.41 h -20.27 c 0,0 4.01,21.55 18.91,36.18 0,0 16.31,16.82 35.38,6.64 0,0 19.25,-10.21 9.08,-32.64 0,0 -5.05,-7.75 -13.76,-16.82 0,0 26.73,-4.95 52.13,10.84 0,0 28.82,16.17 27.89,63.75 0,0 1.4,54.62 -54.07,67.16" /><path
         id="path24"
         style="fill:#ffffff;fill-opacity:1;fill-rule:nonzero;stroke:none"
         d="m 42.7773,692.316 v 206.172 c 0,8.934 -8.8945,19.61 -19.0156,19.61 H 0 v 39.211 h 163.41 v -39.211 h -52.301 v -229.36 c 0,-83.168 41,-103.957 101.012,-103.957 59.406,0 100.41,20.199 100.41,103.957 v 229.36 h -52.293 v 39.211 H 405.82 v -39.211 h -23.757 c -8.934,0 -18.426,-10.676 -18.426,-19.61 V 692.316 C 363.637,586.551 309.57,537.238 205,537.238 c -101.609,0 -162.2227,49.313 -162.2227,155.078" /><path
         id="path26"
         style="fill:#ffffff;fill-opacity:1;fill-rule:nonzero;stroke:none"
         d="m 424.84,579.422 h 24.961 c 8.922,0 18.433,10.687 18.433,19.019 V 898.48 c 0,8.93 -9.511,19.629 -18.433,19.629 H 424.84 v 39.204 H 541.309 L 732.051,653.691 h 1.758 v 264.418 h -52.27 v 39.204 h 146.754 v -39.204 h -24.352 c -8.921,0 -17.824,-10.699 -17.824,-19.629 V 541.398 H 726.68 L 522.293,864.625 h -2.359 V 579.422 h 53.457 V 541.398 H 424.84 v 38.024" /><path
         id="path28"
         style="fill:#ffffff;fill-opacity:1;fill-rule:nonzero;stroke:none"
         d="m 846.719,579.422 h 29.722 c 9.497,0 18.407,10.687 18.407,19.019 V 898.48 c 0,8.93 -8.91,19.629 -18.407,19.629 h -29.722 v 39.204 h 165.191 v -39.204 h -29.711 c -9.508,0 -18.41,-10.699 -18.41,-19.629 V 598.441 c 0,-8.332 8.902,-19.019 18.41,-19.019 h 29.711 V 541.398 H 846.719 v 38.024" /><path
         id="path30"
         style="fill:#ffffff;fill-opacity:1;fill-rule:nonzero;stroke:none"
         d="m 1068.37,898.488 c -3.56,10.114 -13.68,19.617 -23.76,19.617 h -14.26 v 39.219 h 158.63 v -39.219 h -52.28 l 104.56,-308.386 h 1.2 l 95.07,269.754 c 8.91,24.961 2.97,38.632 -19.61,38.632 h -25.54 v 39.219 h 145.55 v -39.219 h -13.06 c -11.89,0 -21.98,-8.914 -26.15,-20.792 L 1269.21,541.391 h -74.29 l -126.55,357.097" /><path
         id="path32"
         style="fill:#ffffff;fill-opacity:1;fill-rule:nonzero;stroke:none"
         d="m 1456.39,579.422 h 24.94 c 8.91,0 18.42,10.687 18.42,19.019 V 898.48 c 0,8.93 -9.51,19.629 -18.42,19.629 h -24.94 v 39.204 h 321.44 v -110.52 h -43.38 l -7.13,68.328 H 1567.48 V 774.309 h 81.41 l 4.76,49.324 h 41.58 V 683.992 h -41.58 l -4.76,49.317 h -81.41 V 582.98 h 165.19 l 7.14,76.063 h 44.55 V 541.398 h -327.97 v 38.024" /><path
         id="path34"
         style="fill:#ffffff;fill-opacity:1;fill-rule:nonzero;stroke:none"
         d="M 1798.05,579.422 H 1823 c 8.91,0 18.41,10.687 18.41,19.019 V 898.48 c 0,8.93 -9.5,19.629 -18.41,19.629 h -24.95 v 39.204 h 169.93 c 95.06,0 157.44,-33.262 157.44,-114.665 0,-59.418 -36.83,-86.757 -93.28,-97.449 v -1.785 c 42.19,-8.922 65.97,-25.555 83.78,-92.703 l 14.86,-55.238 c 2.96,-10.703 11.29,-16.051 17.22,-16.051 h 20.2 v -38.024 h -97.43 l -23.17,112.293 c -11.29,54.082 -32.1,69.52 -85.57,69.52 h -51.69 V 579.422 h 52.87 v -38.024 h -165.16 z m 168.74,184.789 c 64.15,0 87.93,23.762 87.93,74.269 0,52.879 -26.13,77.25 -87.93,77.25 h -56.45 V 764.211 h 56.45" /><path
         id="path36"
         style="fill:#ffffff;fill-opacity:1;fill-rule:nonzero;stroke:none"
         d="m 2243.69,556.84 c -4.15,0 -7.74,-6.551 -8.91,-15.442 h -45.16 v 121.2 h 46.95 l 5.95,-50.496 c 20.78,-20.207 42.17,-31.5 86.73,-31.5 47.52,0 79.04,21.996 79.04,67.75 0,56.433 -41.6,62.98 -102.22,79.621 -73.08,20.191 -109.31,50.504 -109.31,121.211 0,74.867 55.25,112.289 131.9,112.289 42.19,0 62.98,-11.289 74.86,-17.231 4.15,0 8.31,7.133 8.92,13.063 h 43.38 V 847.383 h -45.75 l -5.95,41.601 c -14.86,14.262 -35.07,28.512 -75.46,28.512 -43.39,0 -73.1,-16.613 -73.1,-61.785 0,-48.715 38.04,-57.035 95.07,-72.5 79.62,-21.375 120.04,-46.93 120.04,-123.57 0,-79.629 -48.74,-122.411 -140.23,-122.411 -46.94,0 -70.71,10.7 -86.75,19.61" /><path
         id="path38"
         style="fill:#ffffff;fill-opacity:1;fill-rule:nonzero;stroke:none"
         d="m 2492.67,579.422 h 29.7 c 9.49,0 18.42,10.687 18.42,19.019 V 898.48 c 0,8.93 -8.93,19.629 -18.42,19.629 h -29.7 v 39.204 h 165.16 v -39.204 h -29.7 c -9.5,0 -18.42,-10.699 -18.42,-19.629 V 598.441 c 0,-8.332 8.92,-19.019 18.42,-19.019 h 29.7 v -38.024 h -165.16 v 38.024" /><path
         id="path40"
         style="fill:#ffffff;fill-opacity:1;fill-rule:nonzero;stroke:none"
         d="m 2774.31,579.422 h 28.51 c 9.51,0 18.43,10.687 18.43,19.019 V 916.32 h -89.14 l -5.92,-87.945 h -44.58 v 128.938 h 348.2 V 828.375 h -44.58 l -5.93,87.945 h -89.13 V 598.441 c 0,-8.332 8.91,-19.019 18.43,-19.019 h 28.51 v -38.024 h -162.8 v 38.024" /><path
         id="path42"
         style="fill:#ffffff;fill-opacity:1;fill-rule:nonzero;stroke:none"
         d="m 3160.53,579.422 h 28.53 c 9.49,0 18.42,10.687 18.42,19.019 v 115.258 l -116.45,186.574 c -6.54,10.106 -15.46,17.836 -25.57,17.836 H 3053 v 39.204 h 154.48 v -39.204 h -48.71 l 93.28,-153.304 h 1.19 l 68.92,114.066 c 14.86,24.981 4.76,39.238 -19.02,39.238 h -19 v 39.204 h 142.58 v -39.204 h -11.28 c -10.7,0 -19.59,-7.73 -26.74,-19.019 L 3276.4,716.074 V 598.441 c 0,-8.332 8.94,-19.019 18.42,-19.019 h 28.53 v -38.024 h -162.82 v 38.024" /><path
         id="path44"
         style="fill:#ffffff;fill-opacity:1;fill-rule:nonzero;stroke:none"
         d="m 6.54297,212.129 c 0,137.25 91.50783,212.109 199.64103,212.109 107.539,0 199.046,-74.859 199.046,-212.109 C 405.23,74.8789 313.723,0 206.184,0 98.0508,0 6.54297,74.8789 6.54297,212.129 M 333.332,210.93 c 0,110.531 -54.07,166.379 -127.148,166.379 -73.684,0 -127.7426,-55.848 -127.7426,-166.379 0,-109.918 54.0586,-165.7581 127.7426,-165.7581 73.078,0 127.148,55.8401 127.148,165.7581" /><path
         id="path46"
         style="fill:#ffffff;fill-opacity:1;fill-rule:nonzero;stroke:none"
         d="m 412.973,42.1914 h 24.961 c 8.921,0 18.429,10.6875 18.429,19.0195 V 361.25 c 0,8.93 -9.508,19.629 -18.429,19.629 h -24.961 v 39.203 h 318.504 v -114.07 h -42.793 l -7.723,71.879 H 525.285 V 227.57 h 79.016 l 5.351,50.512 h 41.004 V 133.699 h -41.004 l -5.351,52.871 H 525.285 V 42.1914 h 53.469 V 4.17188 H 412.973 V 42.1914" /><path
         id="path48"
         style="fill:#ffffff;fill-opacity:1;fill-rule:nonzero;stroke:none"
         d="m 874.98,42.1914 h 24.961 c 8.922,0 18.43,10.6875 18.43,19.0195 V 361.25 c 0,8.93 -9.508,19.629 -18.43,19.629 H 874.98 v 39.203 h 165.19 V 380.879 H 987.293 V 237.68 h 187.167 v 143.199 h -52.88 v 39.203 h 165.77 v -39.203 h -24.96 c -9.5,0 -19.01,-10.699 -19.01,-19.629 V 61.2109 c 0,-8.332 9.51,-19.0195 19.01,-19.0195 h 24.96 V 4.17188 H 1121.58 V 42.1914 h 52.88 V 197.262 H 987.293 V 42.1914 h 52.877 V 4.17188 H 874.98 V 42.1914" /><path
         id="path50"
         style="fill:#ffffff;fill-opacity:1;fill-rule:nonzero;stroke:none"
         d="m 1349.16,155.09 v 206.172 c 0,8.929 -8.9,19.609 -19.02,19.609 h -23.76 v 39.211 h 163.4 v -39.211 h -52.29 V 151.512 c 0,-83.1722 41,-103.9612 101.01,-103.9612 59.41,0 100.41,20.1992 100.41,103.9612 v 229.359 h -52.27 v 39.211 h 145.56 v -39.211 h -23.76 c -8.93,0 -18.42,-10.68 -18.42,-19.609 V 155.09 C 1670.02,49.3203 1615.95,0.0117188 1511.38,0.0117188 1409.77,0.0117188 1349.16,49.3203 1349.16,155.09" /><path
         id="path52"
         style="fill:#ffffff;fill-opacity:1;fill-rule:nonzero;stroke:none"
         d="m 1731.23,42.1914 h 24.96 c 8.91,0 18.42,10.6875 18.42,19.0195 V 361.25 c 0,8.93 -9.51,19.629 -18.42,19.629 h -24.96 v 39.203 h 172.33 v -39.203 h -60.02 V 45.75 h 151.5 l 6.52,87.352 h 46.97 V 4.17188 h -317.3 V 42.1914" /><path
         id="path54"
         style="fill:#ffffff;fill-opacity:1;fill-rule:nonzero;stroke:none"
         d="m 2066.34,42.1914 h 24.96 c 8.92,0 18.43,10.6875 18.43,19.0195 V 361.25 c 0,8.93 -9.51,19.629 -18.43,19.629 h -24.96 v 39.203 h 172.33 v -39.203 h -60.02 V 45.75 h 151.51 l 6.53,87.352 h 46.95 V 4.17188 h -317.3 V 42.1914" /></g></g></svg>