<?xml version="1.0" standalone="no"?>
<!DOCTYPE svg PUBLIC "-//W3C//DTD SVG 20010904//EN"
 "http://www.w3.org/TR/2001/REC-SVG-20010904/DTD/svg10.dtd">
<svg version="1.0" xmlns="http://www.w3.org/2000/svg"
 width="1000.000000pt" height="598.000000pt" viewBox="0 0 1000.000000 598.000000"
 preserveAspectRatio="xMidYMid meet">
<metadata>
Created by potrace 1.15, written by Peter Selinger 2001-2017
</metadata>
<g transform="translate(0.000000,598.000000) scale(0.100000,-0.100000)"
fill="#000000" stroke="none">
<path d="M1050 5105 c-145 -35 -259 -119 -332 -244 l-26 -44 -26 28 c-35 38
-43 89 -23 145 9 24 14 46 12 48 -7 7 -67 -30 -107 -66 -82 -75 -123 -176
-116 -291 7 -121 65 -189 169 -199 l50 -5 -20 39 c-23 43 -26 80 -10 137 l10
38 40 -36 c22 -20 50 -40 62 -44 61 -23 62 -23 75 12 19 52 68 120 99 139 l28
16 1 -49 c1 -30 10 -62 23 -83 40 -64 44 -64 111 -2 34 30 75 60 93 64 37 10
46 7 29 -10 -15 -15 -15 -65 0 -122 9 -34 9 -51 0 -70 -11 -25 -10 -26 16 -26
51 0 115 41 140 90 21 41 23 53 17 132 l-6 86 36 41 c20 22 53 45 73 52 55 17
59 26 16 38 -97 27 -259 7 -347 -42 -46 -26 -57 -16 -57 52 0 57 35 118 89
156 23 15 41 29 41 31 0 9 -110 1 -160 -11z"/>
<path d="M4960 5093 c-26 -10 -61 -47 -83 -88 -34 -62 -29 -202 11 -370 17
-71 34 -158 38 -192 l7 -63 -31 0 c-29 0 -30 2 -37 57 -15 122 -73 236 -142
283 -30 20 -49 25 -103 25 -121 0 -185 -68 -185 -195 1 -123 52 -181 164 -188
l65 -5 -27 32 c-33 40 -34 55 -2 87 19 19 31 23 48 18 31 -9 74 -52 86 -85 10
-29 9 -29 -28 -29 -46 0 -61 -14 -61 -60 0 -46 15 -60 62 -60 36 0 38 -2 28
-20 -18 -34 -67 -26 -105 16 -32 35 -34 35 -44 16 -6 -12 -11 -42 -11 -67 0
-38 5 -52 28 -75 80 -79 209 -27 228 92 6 34 10 38 35 38 34 0 36 -12 13 -89
-8 -30 -30 -69 -51 -92 -34 -38 -35 -40 -19 -64 26 -39 74 -59 141 -59 68 0
115 20 141 60 16 24 16 26 -9 52 -30 31 -62 100 -71 155 -7 36 -6 37 22 37 26
0 31 -4 37 -37 16 -87 81 -140 158 -130 79 11 123 88 92 163 l-16 38 -30 -37
c-32 -39 -73 -49 -97 -25 -20 20 -14 28 21 28 42 0 57 15 57 60 0 46 -15 60
-62 60 l-38 0 19 38 c36 71 83 94 124 61 32 -25 34 -47 7 -82 -33 -42 -27 -50
32 -43 84 11 124 40 153 109 29 70 14 178 -33 231 -25 28 -91 56 -135 56 -130
1 -225 -121 -252 -322 -6 -45 -8 -48 -36 -48 l-30 0 6 58 c4 31 21 116 37 187
42 174 45 316 9 388 -31 63 -86 97 -131 80z"/>
<path d="M2139 5050 c-35 -18 -69 -75 -69 -114 0 -8 -8 -24 -18 -36 -15 -19
-29 -23 -88 -24 -80 -3 -107 -15 -134 -59 -30 -49 -23 -125 14 -149 6 -5 1 -8
-12 -8 -13 0 -37 -13 -53 -29 -25 -25 -29 -37 -29 -83 0 -62 15 -88 71 -124
54 -34 65 -60 45 -109 -9 -20 -16 -59 -16 -86 0 -40 5 -55 31 -83 34 -39 86
-55 124 -38 19 9 22 8 18 -7 -2 -10 2 -35 11 -55 31 -73 142 -88 211 -27 46
40 81 40 130 1 46 -37 73 -44 128 -37 54 7 97 52 97 101 0 34 0 34 33 24 50
-15 100 11 127 66 24 51 25 68 4 127 -23 62 -14 90 41 124 69 44 94 119 60
185 -17 33 -43 50 -76 50 l-22 0 21 23 c16 17 22 36 22 67 0 82 -73 140 -159
125 -51 -8 -84 21 -108 95 -24 74 -67 104 -137 97 -38 -3 -55 -11 -72 -31
l-23 -26 -30 30 c-35 36 -86 40 -142 10z m117 -185 c18 -14 43 -25 56 -25 13
0 39 11 58 25 44 32 84 32 117 -1 19 -19 24 -33 21 -55 -4 -24 -2 -29 11 -23
46 20 68 16 95 -17 22 -26 26 -39 21 -63 -20 -99 -21 -95 29 -140 36 -34 46
-50 46 -74 0 -36 -30 -72 -60 -72 -24 0 -25 -8 -5 -34 43 -57 -10 -126 -95
-126 -51 0 -63 -9 -74 -54 -9 -37 -58 -86 -86 -86 -12 0 -35 13 -51 29 l-29
29 -29 -29 c-35 -34 -45 -35 -88 -9 -22 13 -35 31 -43 58 -13 51 -24 58 -89
64 -43 4 -60 11 -78 32 -28 33 -29 70 -3 96 26 26 25 30 -4 30 -15 0 -33 11
-46 27 -28 35 -21 80 17 110 62 50 65 54 59 81 -4 15 -9 48 -13 73 -5 41 -3
48 22 67 29 23 70 29 80 12 13 -21 23 -9 22 26 -2 70 75 97 139 49z"/>
<path d="M2177 4772 c-10 -10 -17 -24 -17 -30 0 -7 -13 -12 -30 -12 -42 0 -65
-37 -57 -94 6 -39 3 -47 -23 -75 -35 -37 -41 -94 -12 -112 13 -8 17 -20 14
-44 -5 -43 21 -70 76 -79 36 -5 45 -12 61 -45 11 -21 27 -41 36 -45 26 -10 60
-7 73 6 9 9 15 9 24 0 22 -22 75 -14 97 14 12 15 21 33 21 40 0 17 32 34 64
34 39 0 69 35 64 75 -3 24 1 36 14 44 29 18 23 74 -11 113 -26 29 -28 39 -24
80 4 37 2 49 -16 67 -11 11 -32 21 -46 21 -18 0 -25 5 -25 20 0 40 -70 53
-121 23 -27 -16 -31 -16 -58 0 -38 22 -84 22 -104 -1z m203 -134 c52 -36 73
-71 73 -123 0 -52 -21 -87 -73 -122 -87 -60 -213 13 -213 122 0 75 69 145 143
145 22 0 51 -9 70 -22z"/>
<path d="M2260 4572 c-28 -23 -31 -83 -5 -112 28 -31 88 -27 114 6 12 15 21
37 21 49 0 12 -9 34 -21 49 -25 31 -75 35 -109 8z"/>
<path d="M3600 4994 c-28 -33 -31 -42 -28 -86 3 -50 3 -50 -25 -44 -36 7 -92
-16 -107 -45 -19 -34 -7 -102 25 -143 31 -41 42 -45 47 -15 5 33 41 42 71 19
31 -24 41 -63 26 -93 -16 -30 -28 -37 -68 -37 -26 0 -41 8 -67 36 -19 19 -34
40 -34 45 0 5 -4 9 -10 9 -5 0 -10 -11 -10 -25 0 -63 -61 -116 -106 -92 -39
21 -59 76 -37 106 18 27 37 27 62 0 l19 -21 12 37 c15 44 7 100 -16 126 -27
30 -79 25 -105 -10 l-22 -29 -24 29 c-26 30 -91 56 -117 46 -13 -5 -8 -18 28
-74 52 -81 110 -196 141 -278 l23 -60 372 0 373 0 17 50 c27 79 85 194 139
277 27 42 47 79 44 82 -22 21 -98 -7 -131 -48 l-19 -25 -22 30 c-16 22 -30 29
-56 29 -63 0 -94 -78 -61 -155 l13 -30 12 23 c23 44 71 21 71 -34 0 -24 -8
-39 -31 -58 -27 -23 -33 -24 -60 -13 -32 13 -54 44 -64 91 l-6 29 -24 -33
c-33 -44 -55 -59 -91 -60 -40 0 -62 18 -70 57 -5 27 -1 37 24 63 25 24 35 28
54 21 13 -4 24 -18 26 -30 5 -33 20 -25 52 26 36 57 40 109 9 142 -27 29 -66
43 -98 36 -26 -5 -26 -5 -23 43 3 44 0 54 -28 86 -18 20 -40 36 -50 36 -10 0
-32 -16 -50 -36z"/>
<path d="M5887 4972 c-10 -10 -17 -24 -17 -31 0 -6 -15 -21 -34 -32 -30 -17
-51 -51 -40 -62 3 -2 22 1 44 7 54 14 75 -6 75 -72 0 -38 -8 -58 -40 -106 -38
-56 -40 -62 -39 -136 0 -58 6 -88 23 -122 40 -83 131 -151 259 -192 47 -16 52
-20 52 -47 0 -17 -7 -44 -16 -60 -14 -27 -18 -30 -47 -23 -18 4 -45 8 -62 8
-25 1 -30 -3 -33 -26 l-3 -28 130 0 131 0 0 26 c0 23 -3 25 -32 22 -38 -3 -39
8 -7 81 11 24 18 45 17 45 -36 15 -189 131 -231 175 -97 101 -104 170 -23 231
18 14 19 14 8 -7 -54 -100 51 -220 344 -394 202 -120 236 -139 259 -139 25 0
18 15 -46 96 l-61 77 112 -77 c93 -63 119 -76 152 -76 65 0 106 57 78 109 -5
10 -56 45 -112 77 -381 214 -598 411 -668 605 -11 30 -29 62 -41 72 -29 24
-110 23 -132 -1z"/>
<path d="M642 4404 c-25 -17 -31 -71 -10 -92 9 -9 89 -12 299 -12 286 0 288 0
303 22 22 31 20 45 -9 73 l-24 25 -268 0 c-227 0 -272 -2 -291 -16z"/>
<path d="M3286 4278 c3 -18 7 -43 10 -55 l4 -23 349 0 349 0 6 31 c3 17 6 42
6 55 l0 24 -365 0 -364 0 5 -32z"/>
<path d="M733 4230 c-27 -11 -39 -53 -24 -86 l11 -24 209 0 c230 0 235 1 229
62 -5 52 -28 58 -228 57 -96 0 -185 -4 -197 -9z"/>
<path d="M3246 4117 c-12 -9 -17 -23 -14 -47 5 -59 12 -60 418 -60 406 0 413
1 418 60 6 61 10 60 -418 60 -300 0 -390 -3 -404 -13z"/>
<path d="M793 4024 c-15 -24 -15 -29 -2 -53 15 -26 15 -26 144 -26 l130 0 9
27 c7 18 6 35 -2 53 -11 25 -12 25 -137 25 -123 0 -125 0 -142 -26z"/>
<path d="M6571 3420 c-97 -21 -178 -79 -217 -156 -29 -60 -28 -243 3 -300 46
-85 112 -126 294 -179 199 -59 239 -93 239 -208 0 -109 -74 -167 -215 -167
-64 0 -90 5 -130 25 -75 36 -84 47 -91 101 -11 99 -7 94 -79 94 l-65 0 0 -170
0 -170 65 0 c50 0 65 3 65 14 0 26 17 26 66 4 43 -20 65 -23 184 -22 115 0
143 3 190 22 122 48 181 135 188 278 5 96 -8 159 -44 214 -47 70 -111 102
-357 175 -102 30 -151 67 -167 126 -12 45 1 112 28 143 60 68 221 75 313 13
34 -23 44 -42 54 -109 l6 -38 64 0 65 0 0 155 0 155 -60 0 c-44 0 -61 -4 -68
-16 -9 -16 -13 -15 -58 1 -57 20 -209 28 -273 15z"/>
<path d="M420 3360 l0 -60 44 0 c28 0 48 -6 57 -17 11 -13 15 -91 19 -372 l5
-356 28 -61 c67 -144 202 -214 411 -214 86 0 187 20 238 46 47 24 117 94 140
137 40 80 48 154 48 489 0 355 -1 348 71 348 l39 0 0 60 0 60 -200 0 -200 0 0
-60 0 -60 70 0 70 0 0 -338 c0 -361 -5 -408 -51 -466 -43 -54 -93 -71 -214
-71 -95 0 -116 3 -152 23 -50 26 -88 79 -102 142 -6 26 -11 187 -11 378 l0
332 70 0 70 0 0 60 0 60 -225 0 -225 0 0 -60z"/>
<path d="M1560 3360 l0 -60 43 0 c80 0 77 19 77 -448 0 -399 -1 -413 -20 -432
-13 -13 -33 -20 -60 -20 l-40 0 0 -55 0 -55 205 0 205 0 0 55 0 55 -70 0 -70
0 0 370 c0 204 2 370 4 370 2 0 124 -191 272 -425 l269 -425 82 0 83 0 0 483
c0 549 -3 527 76 527 l44 0 0 60 0 60 -205 0 -205 0 0 -60 0 -60 70 0 70 0 0
-342 0 -342 -191 305 c-105 167 -219 348 -253 401 l-61 98 -162 0 -163 0 0
-60z"/>
<path d="M2700 3360 l0 -60 49 0 c84 0 81 17 81 -452 0 -395 -1 -409 -20 -428
-14 -14 -33 -20 -65 -20 l-45 0 0 -55 0 -55 225 0 225 0 0 55 0 55 -45 0 c-32
0 -51 6 -65 20 -19 19 -20 33 -20 433 0 471 -5 447 83 447 l47 0 0 60 0 60
-225 0 -225 0 0 -60z"/>
<path d="M3190 3360 l0 -60 33 0 c20 0 40 -7 49 -17 9 -10 94 -238 189 -506
l172 -488 106 3 106 3 175 482 c96 264 184 490 194 502 12 13 31 21 53 21 l33
0 0 60 0 60 -205 0 -205 0 0 -60 0 -60 54 0 c52 0 86 -16 86 -40 0 -15 -263
-761 -266 -757 -2 2 -64 182 -138 400 l-135 397 69 0 70 0 0 60 0 60 -220 0
-220 0 0 -60z"/>
<path d="M4340 3360 l0 -60 45 0 c34 0 47 -5 55 -19 6 -13 10 -167 10 -434 0
-388 -1 -415 -18 -430 -10 -10 -35 -17 -55 -17 l-37 0 0 -55 0 -55 445 0 445
0 0 165 0 165 -64 0 c-74 0 -70 7 -81 -132 l-7 -78 -219 0 -219 0 0 200 0 200
105 0 c118 0 112 5 117 -90 l3 -45 63 -3 62 -3 0 196 0 196 -62 -3 -63 -3 -3
-40 c-6 -89 0 -85 -117 -85 l-105 0 0 185 0 185 213 -2 212 -3 9 -92 8 -93 64
0 64 0 0 155 0 155 -435 0 -435 0 0 -60z"/>
<path d="M5250 3361 l0 -61 44 0 c80 0 76 22 76 -450 l0 -419 -22 -15 c-12 -9
-39 -16 -60 -16 l-38 0 0 -55 0 -55 230 0 230 0 0 55 0 55 -70 0 -70 0 0 190
0 190 88 0 c145 -1 198 -21 234 -92 11 -20 36 -117 57 -215 l38 -178 136 -3
137 -3 0 56 0 55 -33 0 c-20 0 -40 7 -49 18 -9 9 -30 68 -47 130 -49 177 -90
242 -175 277 l-40 17 53 18 c66 22 119 65 149 121 21 39 23 54 20 139 -3 82
-7 102 -31 142 -33 57 -98 104 -181 131 -55 18 -94 21 -368 25 l-308 4 0 -61z
m591 -88 c70 -31 93 -71 97 -168 4 -98 -14 -138 -79 -175 -39 -22 -58 -25
-166 -28 l-123 -4 0 202 0 203 113 -5 c83 -4 125 -10 158 -25z"/>
<path d="M7120 3360 l0 -60 49 0 c86 0 81 25 81 -450 l0 -419 -22 -15 c-12 -9
-42 -16 -65 -16 l-43 0 0 -55 0 -55 230 0 230 0 0 55 0 55 -48 0 c-86 0 -82
-23 -82 456 0 313 3 423 12 432 7 7 36 12 65 12 l53 0 0 60 0 60 -230 0 -230
0 0 -60z"/>
<path d="M7630 3240 l0 -180 64 0 63 0 6 68 c4 37 7 91 7 120 l0 52 115 0 115
0 0 -433 c0 -491 4 -467 -78 -467 l-42 0 0 -55 0 -55 225 0 225 0 0 55 0 55
-43 0 c-23 0 -53 7 -65 16 l-22 15 0 435 0 434 114 0 113 0 6 -67 c4 -38 7
-92 7 -120 l0 -53 70 0 70 0 0 180 0 180 -475 0 -475 0 0 -180z"/>
<path d="M8630 3360 c0 -59 0 -60 28 -60 18 0 37 -10 54 -27 13 -16 93 -137
176 -271 l152 -244 0 -162 c0 -187 -4 -196 -78 -196 l-42 0 0 -55 0 -55 220 0
220 0 0 55 0 55 -43 0 c-73 0 -77 10 -77 200 l0 163 146 239 c171 280 185 298
225 298 29 0 29 0 29 60 l0 60 -195 0 -195 0 0 -60 0 -60 44 0 c53 0 80 -22
72 -55 -6 -22 -177 -310 -194 -326 -4 -4 -59 79 -123 184 l-117 192 59 3 59 3
0 59 0 60 -210 0 -210 0 0 -60z"/>
<path d="M895 1980 c-277 -38 -455 -260 -455 -570 0 -174 49 -309 150 -414
105 -110 221 -156 390 -156 163 0 271 40 376 142 138 132 196 359 149 583 -59
282 -313 455 -610 415z m222 -163 c59 -30 127 -102 152 -160 79 -187 58 -441
-48 -575 -72 -91 -211 -135 -328 -103 -104 28 -185 116 -225 245 -32 100 -31
271 0 373 21 69 70 146 116 185 26 22 82 49 121 59 54 15 159 2 212 -24z"/>
<path d="M1530 1915 l0 -55 40 0 c27 0 47 -7 60 -20 19 -19 20 -33 20 -428 0
-466 2 -452 -76 -452 l-44 0 0 -55 0 -55 230 0 230 0 0 55 0 55 -75 0 -75 0 0
190 0 190 105 0 105 0 0 -37 c0 -21 3 -55 6 -75 l7 -38 58 0 59 0 0 200 0 200
-59 0 c-58 0 -59 -1 -65 -31 -3 -17 -6 -47 -6 -65 l0 -34 -105 0 -105 0 0 195
0 195 204 0 204 0 6 -27 c3 -16 8 -58 12 -95 l6 -68 64 0 64 0 0 155 0 155
-435 0 -435 0 0 -55z"/>
<path d="M2770 1915 l0 -55 43 0 c80 0 77 19 77 -452 0 -469 4 -448 -78 -448
l-42 0 0 -55 0 -55 230 0 230 0 0 55 0 55 -75 0 -75 0 0 205 0 205 250 0 250
0 0 -205 0 -205 -70 0 -70 0 0 -55 0 -55 225 0 225 0 0 55 0 55 -44 0 c-78 0
-76 -14 -76 452 0 395 1 409 20 428 13 13 33 20 60 20 l40 0 0 55 0 55 -225 0
-225 0 0 -55 0 -55 70 0 70 0 0 -190 0 -190 -250 0 -250 0 0 190 0 190 75 0
75 0 0 55 0 55 -230 0 -230 0 0 -55z"/>
<path d="M3930 1915 l0 -55 40 0 c27 0 47 -7 60 -20 19 -19 20 -33 20 -347 0
-242 4 -341 14 -378 37 -140 115 -218 260 -260 85 -25 299 -17 377 13 113 45
184 136 208 266 6 35 11 190 11 376 0 356 -1 350 73 350 l37 0 0 55 0 55 -200
0 -200 0 0 -55 0 -55 70 0 70 0 0 -343 c0 -394 -4 -421 -69 -480 -52 -47 -100
-61 -201 -61 -71 0 -95 4 -135 24 -61 31 -101 86 -115 159 -5 29 -10 199 -10
377 l0 324 70 0 70 0 0 55 0 55 -225 0 -225 0 0 -55z"/>
<path d="M5070 1915 l0 -55 43 0 c80 0 77 19 77 -452 0 -469 4 -448 -78 -448
l-42 0 0 -55 0 -55 435 0 435 0 0 175 0 175 -69 0 -68 0 -7 -61 c-3 -34 -6
-79 -6 -100 0 -72 9 -69 -206 -69 l-194 0 0 445 0 445 80 0 80 0 0 55 0 55
-240 0 -240 0 0 -55z"/>
<path d="M5980 1915 l0 -55 38 0 c74 0 72 15 72 -453 0 -465 3 -447 -71 -447
l-39 0 0 -55 0 -55 430 0 430 0 0 175 0 175 -69 0 -69 0 -7 -97 c-3 -54 -7
-105 -8 -113 -2 -13 -33 -15 -200 -18 l-197 -2 0 445 0 445 80 0 80 0 0 55 0
55 -235 0 -235 0 0 -55z"/>
</g>
</svg>
