<?xml version="1.0" encoding="UTF-8" standalone="no"?>
<!-- Created with Inkscape (http://www.inkscape.org/) -->

<svg
   xmlns:dc="http://purl.org/dc/elements/1.1/"
   xmlns:cc="http://creativecommons.org/ns#"
   xmlns:rdf="http://www.w3.org/1999/02/22-rdf-syntax-ns#"
   xmlns:svg="http://www.w3.org/2000/svg"
   xmlns="http://www.w3.org/2000/svg"
   xmlns:sodipodi="http://sodipodi.sourceforge.net/DTD/sodipodi-0.dtd"
   xmlns:inkscape="http://www.inkscape.org/namespaces/inkscape"
   width="4.2333341mm"
   height="4.233335mm"
   viewBox="0 0 4.2333339 4.2333349"
   version="1.1"
   id="svg8"
   inkscape:version="0.92.4 (5da689c313, 2019-01-14)"
   sodipodi:docname="nat.svg">
  <defs
     id="defs2" />
  <sodipodi:namedview
     id="base"
     pagecolor="#ffffff"
     bordercolor="#666666"
     borderopacity="1.0"
     inkscape:pageopacity="0.0"
     inkscape:pageshadow="2"
     inkscape:zoom="22.4"
     inkscape:cx="11.499507"
     inkscape:cy="12.081851"
     inkscape:document-units="mm"
     inkscape:current-layer="g942"
     showgrid="false"
     fit-margin-top="0"
     fit-margin-left="0"
     fit-margin-right="0"
     fit-margin-bottom="0"
     inkscape:window-width="1920"
     inkscape:window-height="1017"
     inkscape:window-x="1912"
     inkscape:window-y="-8"
     inkscape:window-maximized="1" />
  <metadata
     id="metadata5">
    <rdf:RDF>
      <cc:Work
         rdf:about="">
        <dc:format>image/svg+xml</dc:format>
        <dc:type
           rdf:resource="http://purl.org/dc/dcmitype/StillImage" />
        <dc:title></dc:title>
      </cc:Work>
    </rdf:RDF>
  </metadata>
  <g
     inkscape:label="Layer 1"
     inkscape:groupmode="layer"
     id="layer1"
     transform="translate(-57.284065,-145.52428)">
    <g
       id="g906"
       style="fill:#fffff2;fill-opacity:0.97989951;stroke:none;stroke-width:1;stroke-miterlimit:4;stroke-dasharray:none;stroke-opacity:1"
       transform="translate(-6.0476191,49.136905)">
      <g
         id="g942">
        <path
           style="fill:#ffffff;fill-opacity:1;stroke:#000003;stroke-width:0.32846108;stroke-miterlimit:4;stroke-dasharray:none;stroke-dashoffset:0;stroke-opacity:1"
           d="m 65.654648,96.551606 a 0.87675687,0.90054494 0 0 0 -0.693891,0.351879 1.1346265,1.1654111 0 0 0 -0.197593,-0.01891 1.1346265,1.1654111 0 0 0 -1.134627,1.165412 1.1346265,1.1654111 0 0 0 0.198117,0.655895 c -0.202965,0.182817 -0.330739,0.451344 -0.330739,0.751682 0,0.553396 0.433746,0.998916 0.972532,0.998916 h 1.959809 c 0.538786,0 0.972532,-0.44552 0.972532,-0.998916 0,-0.262846 -0.09789,-0.501304 -0.258374,-0.679299 a 0.87675687,0.90054494 0 0 0 0.04472,-0.281793 0.87675687,0.90054494 0 0 0 -0.671872,-0.874534 0.87675687,0.90054494 0 0 0 0.01614,-0.169783 0.87675687,0.90054494 0 0 0 -0.876756,-0.900545 z"
           id="rect1218"
           inkscape:connector-curvature="0" />
      </g>
    </g>
  </g>
</svg>
