<?xml version="1.0" encoding="UTF-8" standalone="no"?>
<!-- Created with Inkscape (http://www.inkscape.org/) -->

<svg
   xmlns:dc="http://purl.org/dc/elements/1.1/"
   xmlns:cc="http://creativecommons.org/ns#"
   xmlns:rdf="http://www.w3.org/1999/02/22-rdf-syntax-ns#"
   xmlns:svg="http://www.w3.org/2000/svg"
   xmlns="http://www.w3.org/2000/svg"
   xmlns:sodipodi="http://sodipodi.sourceforge.net/DTD/sodipodi-0.dtd"
   xmlns:inkscape="http://www.inkscape.org/namespaces/inkscape"
   width="6.3499575mm"
   height="6.3500175mm"
   viewBox="0 0 6.3499575 6.3500176"
   version="1.1"
   id="svg8"
   inkscape:version="0.92.4 (5da689c313, 2019-01-14)"
   sodipodi:docname="refresh.svg">
  <defs
     id="defs2">
    <marker
       inkscape:stockid="Arrow2Send"
       orient="auto"
       refY="0.0"
       refX="0.0"
       id="marker2041"
       style="overflow:visible;"
       inkscape:isstock="true">
      <path
         id="path2039"
         style="fill-rule:evenodd;stroke-width:0.625;stroke-linejoin:round;stroke:#000000;stroke-opacity:1;fill:#000000;fill-opacity:1"
         d="M 8.7185878,4.0337352 L -2.2072895,0.016013256 L 8.7185884,-4.0017078 C 6.9730900,-1.6296469 6.9831476,1.6157441 8.7185878,4.0337352 z "
         transform="scale(0.3) rotate(180) translate(-2.3,0)" />
    </marker>
    <marker
       inkscape:stockid="DotL"
       orient="auto"
       refY="0.0"
       refX="0.0"
       id="DotL"
       style="overflow:visible"
       inkscape:isstock="true">
      <path
         id="path880"
         d="M -2.5,-1.0 C -2.5,1.7600000 -4.7400000,4.0 -7.5,4.0 C -10.260000,4.0 -12.5,1.7600000 -12.5,-1.0 C -12.5,-3.7600000 -10.260000,-6.0 -7.5,-6.0 C -4.7400000,-6.0 -2.5,-3.7600000 -2.5,-1.0 z "
         style="fill-rule:evenodd;stroke:#000000;stroke-width:1pt;stroke-opacity:1;fill:#000000;fill-opacity:1"
         transform="scale(0.8) translate(7.4, 1)" />
    </marker>
    <marker
       inkscape:stockid="Arrow2Send"
       orient="auto"
       refY="0.0"
       refX="0.0"
       id="Arrow2Send"
       style="overflow:visible;"
       inkscape:isstock="true">
      <path
         id="path852"
         style="fill-rule:evenodd;stroke-width:0.625;stroke-linejoin:round;stroke:#000000;stroke-opacity:1;fill:#000000;fill-opacity:1"
         d="M 8.7185878,4.0337352 L -2.2072895,0.016013256 L 8.7185884,-4.0017078 C 6.9730900,-1.6296469 6.9831476,1.6157441 8.7185878,4.0337352 z "
         transform="scale(0.3) rotate(180) translate(-2.3,0)" />
    </marker>
    <marker
       inkscape:stockid="Arrow2Sstart"
       orient="auto"
       refY="0.0"
       refX="0.0"
       id="Arrow2Sstart"
       style="overflow:visible"
       inkscape:isstock="true">
      <path
         id="path849"
         style="fill-rule:evenodd;stroke-width:0.625;stroke-linejoin:round;stroke:#000000;stroke-opacity:1;fill:#000000;fill-opacity:1"
         d="M 8.7185878,4.0337352 L -2.2072895,0.016013256 L 8.7185884,-4.0017078 C 6.9730900,-1.6296469 6.9831476,1.6157441 8.7185878,4.0337352 z "
         transform="scale(0.3) translate(-2.3,0)" />
    </marker>
    <inkscape:path-effect
       effect="spiro"
       id="path-effect1959"
       is_visible="true" />
    <inkscape:path-effect
       effect="spiro"
       id="path-effect1951"
       is_visible="true" />
  </defs>
  <sodipodi:namedview
     id="base"
     pagecolor="#ffffff"
     bordercolor="#666666"
     borderopacity="1.0"
     inkscape:pageopacity="0.0"
     inkscape:pageshadow="2"
     inkscape:zoom="15.839192"
     inkscape:cx="8.0206252"
     inkscape:cy="13.431662"
     inkscape:document-units="mm"
     inkscape:current-layer="layer1"
     showgrid="false"
     fit-margin-top="0"
     fit-margin-left="0"
     fit-margin-right="0"
     fit-margin-bottom="0"
     inkscape:window-width="1920"
     inkscape:window-height="1017"
     inkscape:window-x="-8"
     inkscape:window-y="-8"
     inkscape:window-maximized="1" />
  <metadata
     id="metadata5">
    <rdf:RDF>
      <cc:Work
         rdf:about="">
        <dc:format>image/svg+xml</dc:format>
        <dc:type
           rdf:resource="http://purl.org/dc/dcmitype/StillImage" />
        <dc:title></dc:title>
      </cc:Work>
    </rdf:RDF>
  </metadata>
  <g
     inkscape:label="Layer 1"
     inkscape:groupmode="layer"
     id="layer1"
     transform="translate(-103.56772,-168.17242)">
    <g
       id="g2089"
       transform="matrix(0.9329118,0,0,0.99827266,6.9635649,0.31746032)">
      <g
         id="g2084">
        <path
           style="fill:none;stroke:#000000;stroke-width:0.74871421;stroke-linecap:butt;stroke-linejoin:miter;stroke-miterlimit:4;stroke-dasharray:none;stroke-opacity:1"
           d="m 104.42017,169.00358 c -0.35286,0.0504 -0.69236,0.19167 -0.97679,0.40651 -0.28442,0.21484 -0.51315,0.50277 -0.6581,0.82841 -0.14494,0.32564 -0.20578,0.6883 -0.17505,1.04342 0.0307,0.35511 0.15298,0.70193 0.35172,0.99782 0.19874,0.2959 0.47354,0.54025 0.79064,0.70303 0.31711,0.16278 0.67583,0.24364 1.03211,0.23264 0.35627,-0.011 0.70933,-0.11382 1.01579,-0.29584 0.30646,-0.18202 0.56568,-0.44285 0.74579,-0.75044 0.35262,-0.60219 0.38017,-1.38244 0.0709,-2.008"
           id="path1957"
           inkscape:connector-curvature="0"
           inkscape:path-effect="#path-effect1959"
           inkscape:original-d="m 104.42017,169.00358 c 0.70897,1.05492 1.41767,2.1101 2.12611,3.16555 0.70844,1.05545 0.0475,-1.33893 0.0709,-2.008"
           transform="matrix(1.2751127,0,0,1.280817,-26.784563,-47.815564)" />
      </g>
      <path
         transform="matrix(0.43512166,0.62670475,-0.62670475,0.43512166,169.3643,27.79746)"
         inkscape:transform-center-y="0.030335386"
         inkscape:transform-center-x="-0.25279137"
         d="m 107.95115,172.50839 -1.08009,-0.66606 -1.0801,-0.66606 1.11687,-0.60236 1.11688,-0.60236 -0.0368,1.26842 z"
         inkscape:randomized="0"
         inkscape:rounded="0"
         inkscape:flatsided="false"
         sodipodi:arg2="2.1233827"
         sodipodi:arg1="1.0761852"
         sodipodi:r2="0.73263186"
         sodipodi:r1="1.4652637"
         sodipodi:cy="171.21873"
         sodipodi:cx="107.25561"
         sodipodi:sides="3"
         id="path2079"
         style="fill:#060000;fill-opacity:1;stroke:#010000;stroke-width:0.64917547;stroke-miterlimit:4;stroke-dasharray:none;stroke-dashoffset:0;stroke-opacity:1"
         sodipodi:type="star" />
    </g>
  </g>
</svg>
